<?xml version="1.0" ?><!DOCTYPE svg  PUBLIC '-//W3C//DTD SVG 1.1//EN'  'http://www.w3.org/Graphics/SVG/1.1/DTD/svg11.dtd'><svg xmlns="http://www.w3.org/2000/svg" xmlns:xlink="http://www.w3.org/1999/xlink" xmlns:serif="http://www.serif.com/" width="100%" height="100%" viewBox="0 0 512 512" version="1.1" xml:space="preserve" style="fill-rule:evenodd;clip-rule:evenodd;stroke-linejoin:round;stroke-miterlimit:2;"><g transform="matrix(1,0,0,1,-1686,-2248)"><g id="Icons"><path d="M1865.84,2280.49L1849.35,2280.49C1846.59,2280.49 1844.35,2282.73 1844.35,2285.49L1844.35,2404.9C1844.35,2407.66 1846.59,2409.9 1849.35,2409.9C1852.11,2409.9 1854.35,2407.66 1854.35,2404.9L1854.35,2290.49L1865.84,2290.49L1865.84,2452.68C1865.84,2456.28 1868.07,2459.36 1871.22,2460.63L1871.22,2640.99C1871.22,2645.06 1874.38,2648.4 1878.38,2648.68L1878.38,2686.36C1878.38,2690.06 1880.59,2692.63 1882.93,2693.62L1878.45,2720.49C1878.17,2722.16 1878.76,2723.86 1880.01,2725.01C1885.5,2730.01 1887.65,2737.1 1888.89,2744.8C1889.24,2746.93 1890.92,2748.61 1893.06,2748.94C1895.2,2749.27 1897.31,2748.19 1898.29,2746.26C1906.35,2730.38 1909.63,2712.96 1905.6,2693.18C1907.59,2691.97 1909.28,2689.6 1909.28,2686.36L1909.28,2648.62C1912.99,2648.07 1915.84,2644.86 1915.84,2640.99L1915.84,2460.63C1918.99,2459.36 1921.22,2456.28 1921.22,2452.68C1921.22,2452.68 1921.22,2267.56 1921.22,2267.56C1921.22,2262.83 1917.38,2259 1912.66,2259C1912.66,2259 1874.4,2259 1874.4,2259C1869.68,2259 1865.84,2262.83 1865.84,2267.56L1865.84,2280.49ZM2006.96,2287.92L2003.45,2287.92C2001.81,2287.92 2000.04,2288.58 1998.68,2290.43C1997.73,2291.71 1996.81,2294.22 1996.81,2297.19L1996.81,2359.32C1992.81,2359.6 1989.65,2362.94 1989.65,2367.01L1989.65,2547.37C1986.5,2548.64 1984.28,2551.72 1984.28,2555.32L1984.28,2717.51L1972.78,2717.51C1972.78,2717.51 1972.78,2603.1 1972.78,2603.1C1972.78,2600.35 1970.54,2598.1 1967.78,2598.1C1965.02,2598.1 1962.78,2600.35 1962.78,2603.1L1962.78,2722.51C1962.78,2725.27 1965.02,2727.51 1967.78,2727.51L1984.28,2727.51L1984.28,2740.44C1984.28,2745.17 1988.11,2749 1992.83,2749C1992.83,2749 2031.09,2749 2031.09,2749C2035.82,2749 2039.65,2745.17 2039.65,2740.44L2039.65,2555.32C2039.65,2551.72 2037.42,2548.64 2034.28,2547.37L2034.28,2367.01C2034.28,2363.14 2031.42,2359.93 2027.71,2359.38L2027.71,2297.19C2027.71,2294.22 2026.79,2291.71 2025.84,2290.43C2024.48,2288.58 2022.71,2287.92 2021.07,2287.92L2016.96,2287.92L2016.96,2264C2016.96,2261.24 2014.72,2259 2011.96,2259C2009.2,2259 2006.96,2261.24 2006.96,2264L2006.96,2287.92ZM2029.65,2727.51L1994.28,2727.51L1994.28,2739L2029.65,2739L2029.65,2727.51ZM1895.57,2694.08L1892.99,2694.08C1891.62,2702.26 1888.74,2719.6 1888.74,2719.6C1891.19,2722.28 1893.1,2725.31 1894.61,2728.6C1897.69,2717.98 1898.28,2706.56 1895.57,2694.08ZM2029.65,2603.33L1994.28,2603.33L1994.28,2717.51L2029.65,2717.51L2029.65,2603.33ZM1899.28,2648.7L1888.38,2648.7L1888.38,2684.08L1888.67,2684.08C1888.72,2684.08 1888.78,2684.08 1888.83,2684.08L1899.28,2684.08L1899.28,2648.7ZM1905.84,2622.43L1881.22,2622.43L1881.22,2638.7L1905.84,2638.7L1905.84,2622.43ZM1881.22,2477.95L1881.22,2612.43L1905.84,2612.43L1905.84,2477.95L1881.22,2477.95ZM2029.65,2593.33L2029.65,2556.76L1994.28,2556.76L1994.28,2593.33L2029.65,2593.33ZM1999.65,2369.3L1999.65,2546.76L2024.28,2546.76L2024.28,2369.3L1999.65,2369.3ZM1881.22,2461.24L1881.22,2467.95L1905.84,2467.95L1905.84,2461.24L1881.22,2461.24ZM1911.22,2434.97L1875.84,2434.97L1875.84,2451.24L1911.22,2451.24L1911.22,2434.97ZM1875.84,2414.67L1875.84,2424.97L1911.22,2424.97L1911.22,2414.67L1875.84,2414.67ZM1875.84,2290.49L1875.84,2404.67L1911.22,2404.67L1911.22,2290.49L1875.84,2290.49ZM2017.71,2359.3L2017.71,2297.92L2006.81,2297.92L2006.81,2359.3L2017.71,2359.3ZM1911.22,2280.49L1911.22,2269L1875.84,2269L1875.84,2280.49L1911.22,2280.49Z"/></g></g></svg>